# xmcd
#
# Track frame offsets:
#	150
#	13431
#	24462
#	35255
#	45766
#	55138
#	63095
#	76429
#	87546
#	97232
#	120429
#	131493
#	146870
#	159317
#	172298
#	184140
#	193505
#	203933
#	213517
#	223745
#
# Disc length: 3113 seconds
#
# Revision: 1
# Processed by: cddbd v1.5.2PL0 Copyright (c) Steve Scherf et al.
# Submitted via: audiograbber 1.83.01
#
DISCID=250c2714
DTITLE=Various Artist - 100 Rock 'n' Roll Favourites - CD4
DYEAR=1900
DGENRE=Rock and Roll
TTITLE0=Money - Honey - Clyde McPhatter and The Drifters
TTITLE1=Peter Gunn Theme - DUANE EDDY
TTITLE2=Ain't That A Shame - FATS DOMINO
TTITLE3=Hot Banana - OSCAR McCLOLLIE
TTITLE4=Love Love Love - THE CLOVERS
TTITLE5=Stay - MAURICE WILLIAMS and THE ZODIACS
TTITLE6=Ookey Ook - THE PENGUINS
TTITLE7=A.B.C. Boog - BILL HALEY and HIS COMETS
TTITLE8=Are You Forgetting -  - THE ROYALS
TTITLE9=Mona - BO DIDDLEY
TTITLE10=Yak A Dak - CHUCK HIGGINS
TTITLE11=Guitar Boogie - ARTHUR 'GUITAR BOOGIE SMITH
TTITLE12=Rockin' At Home - FLOYD DIXON
TTITLE13=Way Down Boogie - HAROLD BURRAGE
TTITLE14=Ko Ko Mo (I Love you So) - THE CREW CUTS
TTITLE15=Baby, Be Mine - DIABLOS
TTITLE16=Rack 'Em Back - BOBBY MITCHELL and THE TOPPERS
TTITLE17=Oobidee-Oobidee-Oo - THE HARPTONES
TTITLE18=Long Tall Sally - SCREAMING LORD SUTCH
TTITLE19=Ain't Misbehavin - TOMMY BRUCE
EXTD=
EXTT0=
EXTT1=
EXTT2=
EXTT3=
EXTT4=
EXTT5=
EXTT6=
EXTT7=
EXTT8=
EXTT9=
EXTT10=
EXTT11=
EXTT12=
EXTT13=
EXTT14=
EXTT15=
EXTT16=
EXTT17=
EXTT18=
EXTT19=
PLAYORDER=
